<mxfile host="drawio-plugin" agent="5.0 (Macintosh; Intel Mac OS X 10_15_7) AppleWebKit/537.36 (KHTML, like Gecko) Chrome/104.0.5112.102 Safari/537.36" modified="2023-08-06T11:27:34.153Z" version="20.5.3" etag="dUSTD4U2SJtL_fX7ix-x" type="embed"><diagram id="diagram_1" name="AWS components"><mxGraphModel dx="753" dy="539" grid="1" gridSize="10" guides="1" tooltips="1" connect="1" arrows="1" fold="1" page="1" pageScale="1" pageWidth="850" pageHeight="1100" math="0" shadow="1"><root><mxCell id="0"/><mxCell id="1" parent="0"/><mxCell id="vertex:lambda_function:arn:aws:lambda:eu-west-1:123456789012:function:prod-lambda-name" value="&lt;b&gt;Name&lt;/b&gt;: prod-lambda-name&lt;BR&gt;&lt;b&gt;ARN&lt;/b&gt;: arn:aws:lambda:eu-west-1:123456789012:function:prod-lambda-name" style="verticalLabelPosition=bottom;html=1;verticalAlign=top;aspect=fixed;align=left;pointerEvents=1;shape=mxgraph.aws3.lambda_function;prIcon=server;fillColor=#F58534;gradientColor=none;html=1;" parent="1" vertex="1"><mxGeometry x="138.0000000000001" width="69" height="72" as="geometry"/></mxCell><mxCell id="vertex:iam_role:arn:aws:iam::123456789012:role/prod-lambda-name" value="&lt;b&gt;Name&lt;/b&gt;: role-lambda-name&lt;BR&gt;&lt;b&gt;ARN&lt;/b&gt;: arn:aws:iam::123456789012:role/prod-lambda-name" style="outlineConnect=0;dashed=0;verticalLabelPosition=bottom;verticalAlign=top;align=left;html=1;shape=mxgraph.aws3.role;fillColor=#759C3E;gradientColor=none;" parent="1" vertex="1"><mxGeometry x="185.5000000000001" y="158.00000000000009" width="94.5" height="79.5" as="geometry"/></mxCell><mxCell id="vertex:iam_policy:arn:aws:iam::123456789012:policy/prod-cloudwatch-policy" value="&lt;b&gt;Name&lt;/b&gt;: prod-cloudwatch-policy&lt;BR&gt;&lt;b&gt;ARN&lt;/b&gt;: arn:aws:iam::123456789012:policy/prod-cloudwatch-policy" style="sketch=0;outlineConnect=0;fontColor=#232F3E;gradientColor=none;fillColor=#3F8624;strokeColor=none;dashed=0;verticalLabelPosition=bottom;verticalAlign=top;align=left;html=1;fontSize=12;fontStyle=0;aspect=fixed;pointerEvents=1;shape=mxgraph.aws4.policy;" parent="1" vertex="1"><mxGeometry y="323.50000000000017" width="78" height="67" as="geometry"/></mxCell><mxCell id="vertex:iam_policy:arn:aws:iam::123456789012:policy/prod-s3-policy" value="&lt;b&gt;Name&lt;/b&gt;: prod-s3-policy&lt;BR&gt;&lt;b&gt;ARN&lt;/b&gt;: arn:aws:iam::123456789012:policy/prod-s3-policy" style="sketch=0;outlineConnect=0;fontColor=#232F3E;gradientColor=none;fillColor=#3F8624;strokeColor=none;dashed=0;verticalLabelPosition=bottom;verticalAlign=top;align=left;html=1;fontSize=12;fontStyle=0;aspect=fixed;pointerEvents=1;shape=mxgraph.aws4.policy;" parent="1" vertex="1"><mxGeometry x="386.0000000000001" y="323.50000000000017" width="78" height="67" as="geometry"/></mxCell><mxCell id="edge:lambda_function:arn:aws:lambda:eu-west-1:123456789012:function:prod-lambda-name:to:iam_role:arn:aws:iam::123456789012:role/prod-lambda-name" style="endFill=0;endArrow=none;endArrow=none;" parent="1" source="vertex:lambda_function:arn:aws:lambda:eu-west-1:123456789012:function:prod-lambda-name" target="vertex:iam_role:arn:aws:iam::123456789012:role/prod-lambda-name" edge="2"><mxGeometry as="geometry"/></mxCell><mxCell id="edge:iam_role:arn:aws:iam::123456789012:role/prod-lambda-name:to:iam_policy:arn:aws:iam::123456789012:policy/prod-cloudwatch-policy" style="endFill=0;endArrow=none;endArrow=none;" parent="1" source="vertex:iam_role:arn:aws:iam::123456789012:role/prod-lambda-name" target="vertex:iam_policy:arn:aws:iam::123456789012:policy/prod-cloudwatch-policy" edge="2"><mxGeometry as="geometry"/></mxCell><mxCell id="edge:iam_role:arn:aws:iam::123456789012:role/prod-lambda-name:to:iam_policy:arn:aws:iam::123456789012:policy/prod-s3-policy" style="endFill=0;endArrow=none;endArrow=none;" parent="1" source="vertex:iam_role:arn:aws:iam::123456789012:role/prod-lambda-name" target="vertex:iam_policy:arn:aws:iam::123456789012:policy/prod-s3-policy" edge="2"><mxGeometry as="geometry"/></mxCell></root></mxGraphModel></diagram></mxfile>